<svg width="16" height="15" viewBox="0 0 16 15" fill="none" xmlns="http://www.w3.org/2000/svg">
<path d="M5.757 0.0708793C5.81335 0.104621 5.86249 0.149132 5.90163 0.201871C5.94077 0.25461 5.96914 0.314544 5.98511 0.378248C6.00108 0.441952 6.00435 0.508179 5.99472 0.573146C5.98509 0.638112 5.96276 0.700545 5.929 0.756879L3.383 4.99988H12.617L10.07 0.756879C10.0018 0.643101 9.98167 0.506907 10.0139 0.378257C10.0462 0.249607 10.1282 0.13904 10.242 0.0708793C10.3558 0.00271866 10.492 -0.0174522 10.6206 0.0148041C10.7493 0.0470603 10.8598 0.129101 10.928 0.242879L13.783 4.99988H15C15.2652 4.99988 15.5196 5.10524 15.7071 5.29277C15.8946 5.48031 16 5.73466 16 5.99988V6.99988C16 7.2651 15.8946 7.51945 15.7071 7.70699C15.5196 7.89452 15.2652 7.99988 15 7.99988V12.4999C15 13.1629 14.7366 13.7988 14.2678 14.2676C13.7989 14.7365 13.163 14.9999 12.5 14.9999H3.5C2.83696 14.9999 2.20107 14.7365 1.73223 14.2676C1.26339 13.7988 1 13.1629 1 12.4999V7.99988C0.734784 7.99988 0.48043 7.89452 0.292893 7.70699C0.105357 7.51945 0 7.2651 0 6.99988V5.99988C0 5.73466 0.105357 5.48031 0.292893 5.29277C0.48043 5.10524 0.734784 4.99988 1 4.99988H2.217L5.07 0.242879C5.10374 0.186533 5.14825 0.137387 5.20099 0.0982468C5.25373 0.0591068 5.31366 0.0307403 5.37737 0.0147678C5.44107 -0.00120464 5.5073 -0.00447019 5.57227 0.00515755C5.63723 0.0147853 5.69967 0.0371177 5.756 0.0708793H5.757ZM2 7.99988V12.4999C2 12.8977 2.15804 13.2792 2.43934 13.5605C2.72064 13.8418 3.10218 13.9999 3.5 13.9999H12.5C12.8978 13.9999 13.2794 13.8418 13.5607 13.5605C13.842 13.2792 14 12.8977 14 12.4999V7.99988H2ZM1 5.99988V6.99988H15V5.99988H1ZM4 8.99988C4.13261 8.99988 4.25979 9.05256 4.35355 9.14633C4.44732 9.24009 4.5 9.36727 4.5 9.49988V12.4999C4.5 12.6325 4.44732 12.7597 4.35355 12.8534C4.25979 12.9472 4.13261 12.9999 4 12.9999C3.86739 12.9999 3.74021 12.9472 3.64645 12.8534C3.55268 12.7597 3.5 12.6325 3.5 12.4999V9.49988C3.5 9.36727 3.55268 9.24009 3.64645 9.14633C3.74021 9.05256 3.86739 8.99988 4 8.99988ZM6 8.99988C6.13261 8.99988 6.25979 9.05256 6.35355 9.14633C6.44732 9.24009 6.5 9.36727 6.5 9.49988V12.4999C6.5 12.6325 6.44732 12.7597 6.35355 12.8534C6.25979 12.9472 6.13261 12.9999 6 12.9999C5.86739 12.9999 5.74021 12.9472 5.64645 12.8534C5.55268 12.7597 5.5 12.6325 5.5 12.4999V9.49988C5.5 9.36727 5.55268 9.24009 5.64645 9.14633C5.74021 9.05256 5.86739 8.99988 6 8.99988V8.99988ZM8 8.99988C8.13261 8.99988 8.25979 9.05256 8.35355 9.14633C8.44732 9.24009 8.5 9.36727 8.5 9.49988V12.4999C8.5 12.6325 8.44732 12.7597 8.35355 12.8534C8.25979 12.9472 8.13261 12.9999 8 12.9999C7.86739 12.9999 7.74021 12.9472 7.64645 12.8534C7.55268 12.7597 7.5 12.6325 7.5 12.4999V9.49988C7.5 9.36727 7.55268 9.24009 7.64645 9.14633C7.74021 9.05256 7.86739 8.99988 8 8.99988V8.99988ZM10 8.99988C10.1326 8.99988 10.2598 9.05256 10.3536 9.14633C10.4473 9.24009 10.5 9.36727 10.5 9.49988V12.4999C10.5 12.6325 10.4473 12.7597 10.3536 12.8534C10.2598 12.9472 10.1326 12.9999 10 12.9999C9.86739 12.9999 9.74021 12.9472 9.64645 12.8534C9.55268 12.7597 9.5 12.6325 9.5 12.4999V9.49988C9.5 9.36727 9.55268 9.24009 9.64645 9.14633C9.74021 9.05256 9.86739 8.99988 10 8.99988ZM12 8.99988C12.1326 8.99988 12.2598 9.05256 12.3536 9.14633C12.4473 9.24009 12.5 9.36727 12.5 9.49988V12.4999C12.5 12.6325 12.4473 12.7597 12.3536 12.8534C12.2598 12.9472 12.1326 12.9999 12 12.9999C11.8674 12.9999 11.7402 12.9472 11.6464 12.8534C11.5527 12.7597 11.5 12.6325 11.5 12.4999V9.49988C11.5 9.36727 11.5527 9.24009 11.6464 9.14633C11.7402 9.05256 11.8674 8.99988 12 8.99988Z" fill="black"/>
</svg>
